<svg id="Calque_1" data-name="Calque 1" xmlns="http://www.w3.org/2000/svg" xmlns:xlink="http://www.w3.org/1999/xlink" viewBox="0 0 70.83 52.23"><defs><style>.cls-1{fill:url(#Dégradé_sans_nom_32);}</style><linearGradient id="Dégradé_sans_nom_32" x1="375.21" y1="427.14" x2="424.13" y2="378.22" gradientUnits="userSpaceOnUse"><stop offset="0.03" stop-color="#c6ee0b"/><stop offset="0.5" stop-color="#00a65b"/><stop offset="0.82" stop-color="#258461"/><stop offset="1" stop-color="#3c6f65"/></linearGradient></defs><title>Picto Discord CS</title><path class="cls-1" d="M411.29,421.25c1.15-.37,2.24-.69,3.31-1.07a29,29,0,0,0,7.69-3.94,5.3,5.3,0,0,0,.45-.34,1.53,1.53,0,1,0-1.87-2.41,23.64,23.64,0,0,1-4.24,2.53,40.39,40.39,0,0,1-19.69,3.46,37.34,37.34,0,0,1-15-3.81,20.35,20.35,0,0,1-3.45-2.12,1.55,1.55,0,1,0-1.86,2.43,31.15,31.15,0,0,0,10.18,4.9l1.2.36c-1,1.37-2,2.7-3,4a1.41,1.41,0,0,1-1.33.46c-6.13-.72-11.85-2.47-16.58-6.65-.23-.2-.43-.42-.64-.63a6.89,6.89,0,0,1-2.25-5.77A86,86,0,0,1,371,384.3c0-.12.12-.24.16-.37,1.56-4.48,5.19-6.59,9.3-8.14a39.6,39.6,0,0,1,9.6-2.27,2,2,0,0,1,2.16,1.91c0,.45-.37.33-.59.37a47,47,0,0,0-5.58,1.42,33.53,33.53,0,0,0-7.07,3.19,1.58,1.58,0,0,0-.88,1.68,1.42,1.42,0,0,0,1.07,1.2,1.53,1.53,0,0,0,1.31-.21,38.38,38.38,0,0,1,23.14-4.74A35.81,35.81,0,0,1,418.74,383a1.54,1.54,0,1,0,1.56-2.62,36.32,36.32,0,0,0-12.18-4.5c-1.22-.24-1.24-.26-.68-1.42a1.52,1.52,0,0,1,1.62-1c5.4.65,10.57,2,15.18,5a8.49,8.49,0,0,1,2.68,3.09,56.79,56.79,0,0,1,4.68,11.72,79.29,79.29,0,0,1,3.45,21.07,3.13,3.13,0,0,1-.53,1.83,18.48,18.48,0,0,1-8.3,6.65,34.69,34.69,0,0,1-10.05,2.78,2.33,2.33,0,0,1-2.48-1.1C413,423.45,412.12,422.38,411.29,421.25ZM395,402.53a6.41,6.41,0,0,0-1.44-4,4.94,4.94,0,0,0-7.7-.21,6.78,6.78,0,0,0-.49,8.13,5,5,0,0,0,7.93.72A6.61,6.61,0,0,0,395,402.53Zm9.25.08a6.62,6.62,0,0,0,.58,2.83,5.24,5.24,0,0,0,4.43,3.34,4.94,4.94,0,0,0,4.7-2.48,6.74,6.74,0,0,0-.56-8,4.87,4.87,0,0,0-6.9-.62A6.34,6.34,0,0,0,404.27,402.61Z" transform="translate(-364.22 -373.49)"/></svg>