<svg id="Calque_1" data-name="Calque 1" xmlns="http://www.w3.org/2000/svg" viewBox="0 0 135.81 135.87"><defs><style>.cls-1{fill:#00a65c;}</style></defs><title>Picto Farm CS</title><path class="cls-1" d="M454,467.58H345V397.52a3.26,3.26,0,0,0-.87,1.08c-1.62,2.95-3.26,5.88-4.83,8.85-.38.72-.68.82-1.39.4-1.75-1-3.53-2-5.36-2.92-.94-.46-1-.85-.52-1.75q14-25.49,27.92-51a3.55,3.55,0,0,1,1.57-1.52Q380,341.37,398.5,332a2,2,0,0,1,2.07,0q18.46,9.36,36.95,18.67a3.69,3.69,0,0,1,1.62,1.65q13.77,25.21,27.59,50.41a3.47,3.47,0,0,0,.84,1.32v.26c-2.17,1.18-4.36,2.34-6.51,3.56-.64.36-1,.34-1.3-.36-.6-1.23-1.31-2.41-2-3.61l-3.53-6.45-.24.07Zm-8.39-47.3q0-18.6,0-37.21a5.2,5.2,0,0,0-.68-2.64q-6-10.94-12-21.89a3.4,3.4,0,0,0-1.56-1.53q-15.41-7.75-30.78-15.58a2.14,2.14,0,0,0-2.21,0q-15.37,7.83-30.79,15.58a3.45,3.45,0,0,0-1.56,1.53q-6,11-12,22a4.64,4.64,0,0,0-.62,2.39c0,3.85,0,7.71,0,11.56q0,31.56,0,63.12c0,1.31.36,1.63,1.62,1.6q5.25-.13,10.5,0c1.26,0,1.62-.27,1.61-1.58-.05-17.32,0-34.64-.06-52,0-1.27.2-1.7,1.62-1.7q30.82.07,61.66,0c1.39,0,1.64.39,1.63,1.69,0,17.36,0,34.72-.05,52.09,0,1.18.29,1.49,1.46,1.46,3.5-.08,7,0,10.5,0,1.73,0,1.74,0,1.74-1.69Zm-63.84-7.86a4.44,4.44,0,0,0,.37.5c5.56,5.46,11.14,10.89,16.68,16.37.66.65,1,.38,1.46-.11l16.22-15.89c.23-.22.62-.38.56-.87Zm-6.21,40.77a4.07,4.07,0,0,0,.49-.33c5.61-5.48,11.2-11,16.83-16.43.73-.7.28-1-.18-1.43q-8.12-7.94-16.25-15.87c-.23-.23-.4-.59-.89-.59Zm47.93-34.88c-.34.27-.47.36-.59.47q-8.35,8.18-16.73,16.33c-.69.66-.39.95.11,1.44l16.43,16.06c.19.18.33.57.78.35Zm-6.31,40.8a3.24,3.24,0,0,0-.25-.42c-5.6-5.48-11.22-10.94-16.8-16.45-.73-.73-1-.18-1.46.24q-8.07,7.88-16.15,15.78c-.22.22-.64.37-.51.85Z" transform="translate(-331.77 -331.71)"/><path class="cls-1" d="M413.52,378.94c0,4.2,0,8.41,0,12.61,0,1-.22,1.3-1.25,1.3q-12.74-.06-25.48,0c-1,0-1.31-.23-1.3-1.25q.06-12.81,0-25.62c0-.85.23-1.16,1.12-1.16q12.87,0,25.75,0c1,0,1.17.37,1.16,1.25C413.51,370.36,413.52,374.65,413.52,378.94Zm-13.94,5.46c1.55,0,3.1,0,4.65,0,.56,0,.9-.06.9-.77,0-3.23,0-6.46,0-9.69,0-.62-.28-.73-.8-.73-3.19,0-6.38,0-9.56,0-.65,0-.83.22-.83.84,0,3.14,0,6.29,0,9.43,0,.8.31.94,1,.93C396.49,384.37,398,384.4,399.58,384.4Z" transform="translate(-331.77 -331.71)"/></svg>