<svg id="Calque_1" data-name="Calque 1" xmlns="http://www.w3.org/2000/svg" xmlns:xlink="http://www.w3.org/1999/xlink" viewBox="0 0 460.16 448"><defs><style>.cls-1{fill:url(#Dégradé_sans_nom_32);}</style><linearGradient id="Dégradé_sans_nom_32" x1="837.7" y1="741.33" x2="1162.85" y2="416.18" gradientUnits="userSpaceOnUse"><stop offset="0.03" stop-color="#c6ee0b"/><stop offset="0.5" stop-color="#00a65b"/><stop offset="0.82" stop-color="#258461"/><stop offset="1" stop-color="#3c6f65"/></linearGradient></defs><title>Picto Github</title><path class="cls-1" d="M947.26,747.33v1.81q0,14.16,0,28.32A20.12,20.12,0,0,1,940,793.18c-4.21,3.69-9.07,4.82-14.48,2.9q-81.6-29-125.24-103.8a217.48,217.48,0,0,1-27.6-80.22c-8.3-60.5,4.74-116.06,39.91-166,26-37,60.38-63.73,102.32-80.67a223.74,223.74,0,0,1,58.77-14.82,228.69,228.69,0,0,1,51.38-.16q75.57,8.42,131.54,59.88c34.53,31.88,57.14,70.88,67.89,116.66a229.66,229.66,0,0,1-38.09,186.94,228.44,228.44,0,0,1-66.19,61,244.79,244.79,0,0,1-44.31,21c-8.38,3-14.87-1.08-18.35-5.9a21,21,0,0,1-4.15-12.7q0-34.79,0-69.56a79.08,79.08,0,0,0-1.67-18.28,25.07,25.07,0,0,0-2.8-7.22c-.62-1-.45-1.33.74-1.55a200.11,200.11,0,0,0,28.9-7.39c17.79-6.1,34.21-14.66,48.18-27.47,18.15-16.63,28.87-37.21,31.83-61.63,2.9-23.88.13-47.06-9.87-69.14a96.31,96.31,0,0,0-17.44-26,1.9,1.9,0,0,1-.31-2.69c2.74-5,4-10.44,4.8-16,1.78-12.18,1.28-24.23-2.66-36a51.81,51.81,0,0,0-6.57-13.06,2.83,2.83,0,0,0-2.72-1.42c-18.64.46-35.49,6.27-50.8,16.76a87.08,87.08,0,0,0-14.92,12.71,1.69,1.69,0,0,1-2.12.53c-12.74-4.44-26-6.33-39.34-7.29a219.44,219.44,0,0,0-35.89.3c-12.35,1.14-24.54,3.17-36.25,7.45a1.66,1.66,0,0,1-2.11-.49,94.64,94.64,0,0,0-50.88-28.4,82.24,82.24,0,0,0-15.11-1.57,2.32,2.32,0,0,0-2.17,1.13,53.79,53.79,0,0,0-9.35,24,74.12,74.12,0,0,0,2.74,34.76,27.13,27.13,0,0,0,3.55,7.47c.76,1.05.63,1.61-.22,2.49a103,103,0,0,0-20,29.83c-8,18.11-10.76,37.14-9.68,56.8a101,101,0,0,0,12.62,44.5c8.84,15.81,21.38,28.06,36.61,37.65,16.1,10.12,33.7,16.46,52.19,20.52,2.94.64,5.88,1.22,8.84,1.78.91.17,1,.47.6,1.27-3.11,6-4,12.53-4.52,19.14a80.85,80.85,0,0,0-.31,8.66c0,1.77-.64,2.41-2.2,2.93a61.59,61.59,0,0,1-20.2,2.91c-11-.14-21.4-2.43-30.94-8.06a49,49,0,0,1-16.73-16.47c-7-11.1-16.55-18.73-29.43-21.9a24.54,24.54,0,0,0-12.59-.18,10.79,10.79,0,0,0-2.45,1,2.9,2.9,0,0,0-1.29,4.21,9.43,9.43,0,0,0,1.72,2.45,21.71,21.71,0,0,0,4,3.52c10.54,6.85,17,17,22.39,27.92,2.51,5.12,4.36,10.55,7.86,15.19,10.6,14.06,24.7,22.29,41.89,25.4,12.36,2.23,24.67,1.31,36.9-1.17Z" transform="translate(-770.3 -349)"/></svg>