<svg xmlns="http://www.w3.org/2000/svg" viewBox="0 0 744.87 753.63"><defs><style>.cls-1{fill:#633001;}.cls-2{fill:#d1884f;}.cls-3{fill:none;}.cls-4{fill:#fedc90;}</style></defs><title>Logo PancakeSwap CS</title><g id="Calque_2" data-name="Calque 2"><path class="cls-1" d="M1770.59,959.23c-3-42.26-19.82-83.44-49.09-119.88-28.33-35.29-67.92-65.66-115-88.37l29.38-154.52.06-1.08a111.86,111.86,0,0,0-9-47.06c-9.62-22.62-31.27-51.54-79.67-60.83l-.74-.13a103.6,103.6,0,0,0-42,4c-20.8,6.31-49,22.08-64.89,61.48l-1.25,3.07V707.22a527,527,0,0,0-85.13.45V555.89l-1.25-3.07c-16-39.4-44.09-55.17-64.89-61.48-21.92-6.63-40-4.28-42-4l-.76.13c-48.38,9.29-70,38.21-79.67,60.83a112.13,112.13,0,0,0-9,47.06l.07,1.08,29.86,157c-94.88,47.33-153.13,122.83-159,205.72q-.49,6.87-.49,13.8c0,36.91,10.21,72.64,30.36,106.18,19.12,31.85,46.36,60.36,81,84.72,70,49.27,162.71,76.41,261.12,76.41s191.15-27.14,261.12-76.41c34.6-24.36,61.83-52.87,81-84.72,20.13-33.54,30.34-69.27,30.34-106.18Q1771.08,966.12,1770.59,959.23Zm-39.15,56.24c-12.11,45.18-43.45,87-91.25,120.65-64.29,45.28-150.07,70.21-241.54,70.21s-177.24-24.93-241.54-70.21c-47.8-33.66-79.14-75.47-91.25-120.65a164,164,0,0,1-5.64-42.44c0-78.12,56.72-150.78,151.7-194.39l12.09-5.55L1189.69,592.5a81.68,81.68,0,0,1,6.79-31.92c9.39-21.09,27.5-34.41,53.82-39.6,4.7-.53,48.54-4.18,69,41.66V745.82l19.1-2.38a490.19,490.19,0,0,1,115.14-.64l18.91,2.14V562.64c20.51-46.07,64.71-42.16,68.91-41.66,26.34,5.18,44.45,18.5,53.85,39.6a81.55,81.55,0,0,1,6.8,31.91l-33.91,178.45,12.34,5.46c47.6,21,87.23,50.16,114.6,84.25,27.53,34.27,42.09,73.14,42.09,112.38A164,164,0,0,1,1731.44,1015.47Z" transform="translate(-1026.22 -486.71)"/><path class="cls-2" d="M1737.08,973a164,164,0,0,1-5.64,42.44c-12.11,45.18-43.45,87-91.25,120.65-64.29,45.28-150.07,70.21-241.54,70.21s-177.24-24.93-241.54-70.21c-47.8-33.66-79.14-75.47-91.25-120.65a164,164,0,0,1-5.64-42.44c0-78.12,56.72-150.78,151.7-194.39l12.09-5.55L1189.69,592.5a81.68,81.68,0,0,1,6.79-31.92c9.39-21.09,27.5-34.41,53.82-39.6,4.7-.53,48.54-4.18,69,41.66V745.82l19.1-2.38a490.19,490.19,0,0,1,115.14-.64l18.91,2.14V562.64c20.51-46.07,64.71-42.16,68.91-41.66,26.34,5.18,44.45,18.5,53.85,39.6a81.55,81.55,0,0,1,6.8,31.91l-33.91,178.45,12.34,5.46c47.6,21,87.23,50.16,114.6,84.25C1722.52,894.92,1737.08,933.79,1737.08,973Z" transform="translate(-1026.22 -486.71)"/><ellipse class="cls-1" cx="242.24" cy="441.19" rx="35.91" ry="57.69"/><ellipse class="cls-1" cx="498.57" cy="441.19" rx="35.91" ry="57.69"/><path class="cls-3" d="M1695,860.64c-27.37-34.08-67-63.21-114.59-84.24L1568,770.94,1602,592.49a81.39,81.39,0,0,0-6.8-31.91c-9.39-21.1-27.51-34.42-53.85-39.61-4.2-.48-48.4-4.4-68.91,41.68V744.94l-18.91-2.14a490.19,490.19,0,0,0-115.14.64l-19.11,2.38V562.65c-20.4-45.84-64.25-42.2-68.94-41.67-26.32,5.19-44.43,18.51-53.82,39.6a81.36,81.36,0,0,0-6.79,31.92L1224,773.09l-12.09,5.55c-95,43.61-151.7,116.28-151.7,194.39a163.84,163.84,0,0,0,5.64,42.43c56.27,66.78,157.79,139.74,332.79,139.74s276.52-73,332.79-139.74a163.41,163.41,0,0,0,5.64-42.43C1737.08,933.79,1722.53,894.93,1695,860.64Z" transform="translate(-1026.22 -486.71)"/><path class="cls-4" d="M1398.65,1155.2c-175,0-276.52-73-332.79-139.74,12.1,45.18,43.45,87,91.25,120.66,64.3,45.28,150.08,70.22,241.54,70.22s177.25-24.94,241.54-70.22c47.8-33.66,79.15-75.48,91.25-120.66C1675.17,1082.24,1573.65,1155.2,1398.65,1155.2Z" transform="translate(-1026.22 -486.71)"/></g></svg>