<svg id="Calque_1" data-name="Calque 1" xmlns="http://www.w3.org/2000/svg" viewBox="0 0 87.11 91.14"><defs><style>.cls-1{fill:#3d7066;}</style></defs><title>Picto Marketplace</title><path class="cls-1" d="M399.55,445.17h-35.8c-2.49,0-3.7-1.2-3.7-3.69q0-23,0-45.89a2,2,0,0,0-.78-1.76,8.43,8.43,0,0,1-3.27-7c.07-3,0-6.06,0-9.1a4.12,4.12,0,0,1,.7-2.41q6.38-9.78,12.71-19.56a3.5,3.5,0,0,1,3.2-1.74q27,0,53.91,0a3.5,3.5,0,0,1,3.19,1.76q6.27,9.72,12.6,19.39a4.7,4.7,0,0,1,.79,2.69c0,3-.06,5.94,0,8.91a8.47,8.47,0,0,1-3.28,7.07,1.92,1.92,0,0,0-.77,1.67q0,22.89,0,45.79c0,2.71-1.13,3.85-3.83,3.85ZM366.14,417.8c0,6.73,0,13.45,0,20.18,0,.87.18,1.17,1.12,1.16q8-.08,16,0c1,0,1.12-.31,1.12-1.17q0-15.78,0-31.55c0-2.45,1.33-3.8,3.76-3.8H411c2.61,0,3.81,1.2,3.81,3.81q0,15.81,0,31.64c0,.8.16,1.07,1,1.07,5.4-.05,10.81,0,16.22,0,.72,0,1-.12,1-1q0-20.37,0-40.74c0-.68-.16-.89-.87-.88a12,12,0,0,1-7.67-2.42c-.53-.41-.84-.22-1.28.09a12.85,12.85,0,0,1-14.82,0,1,1,0,0,0-1.36,0,12.81,12.81,0,0,1-14.89,0,.92.92,0,0,0-1.28,0,12.77,12.77,0,0,1-15,0,.86.86,0,0,0-1.2,0,12,12,0,0,1-7.58,2.4c-.81,0-1,.24-1,1C366.15,404.29,366.14,411.05,366.14,417.8Zm24.32,6c0,4.77,0,9.55,0,14.33,0,.8.24,1,1,1,1.41-.06,2.83,0,4.25,0,.62,0,.87-.15.87-.82q0-14.43,0-28.86c0-.64-.25-.77-.82-.75-1.38,0-2.77.06-4.15,0-.86,0-1.17.15-1.15,1.1C390.49,414.47,390.46,419.15,390.46,423.83Zm12.13,0c0,4.77,0,9.55,0,14.33,0,.72.18,1,.94.95,1.48-.05,3,0,4.44,0,.57,0,.73-.18.73-.73q0-14.49,0-29c0-.55-.14-.75-.72-.73-1.45,0-2.9.05-4.35,0-.8,0-1.06.18-1.05,1C402.61,414.42,402.59,419.14,402.59,423.85ZM384,374.28c1.32,0,2.64,0,4,0,.59,0,.8-.17.89-.73.7-4.26,1.4-8.51,2.13-12.76.11-.63-.09-.73-.64-.72-1.64,0-3.29,0-4.94,0a.74.74,0,0,0-.82.52q-2.52,6.54-5.07,13.07c-.2.51-.06.62.44.61Zm31.1,0c1.35,0,2.7,0,4,0,.58,0,.66-.15.45-.68q-2.53-6.48-5-13a.73.73,0,0,0-.8-.56c-1.71,0-3.42,0-5.14,0-.43,0-.58.13-.5.59.73,4.31,1.46,8.63,2.16,12.95.09.53.33.68.85.67C412.46,374.25,413.78,374.28,415.1,374.28Zm-15.54,0c1.26,0,2.51,0,3.76,0,.78,0,.93-.19.8-.93-.65-3.66-1.23-7.34-1.86-11-.39-2.29-.41-2.28-2.74-2.28s-2.24,0-2.62,2.17c-.64,3.7-1.24,7.4-1.87,11.1-.1.57-.18,1,.68.94C397,374.22,398.28,374.28,399.56,374.28Zm-16.19,6.1c-1.41,0-2.83,0-4.24,0-.65,0-.86.18-.85.83,0,1.94,0,3.89,0,5.83a2.65,2.65,0,0,0,1.18,2.26,6.92,6.92,0,0,0,7.78,0,2.58,2.58,0,0,0,1.19-2.15q0-3,0-6c0-.55-.17-.75-.73-.73C386.27,380.4,384.82,380.38,383.37,380.38Zm32.38,0c-1.41,0-2.83,0-4.24,0-.68,0-.84.23-.83.85,0,1.88.05,3.75,0,5.63a2.8,2.8,0,0,0,1.29,2.5,6.92,6.92,0,0,0,7.62,0,2.58,2.58,0,0,0,1.25-2.13c0-2,0-4.08,0-6.12,0-.57-.22-.72-.75-.71C418.65,380.4,417.2,380.38,415.75,380.38Zm-16.13,0c-1.41,0-2.83,0-4.24,0-.68,0-.92.18-.9.88,0,1.88,0,3.75,0,5.63a2.77,2.77,0,0,0,1.23,2.43,6.92,6.92,0,0,0,7.7,0,2.65,2.65,0,0,0,1.24-2.23c0-2,0-3.95,0-5.93,0-.6-.19-.8-.79-.78C402.45,380.4,401,380.38,399.62,380.38Zm-32.42,0c-1.38,0-2.76,0-4.14,0-.7,0-1,.12-1,.91.06,1.9,0,3.81,0,5.72a2.61,2.61,0,0,0,1,2.15,6.86,6.86,0,0,0,8.17,0,2.52,2.52,0,0,0,1-2.05c0-2,0-3.95,0-5.93,0-.63-.23-.78-.8-.76C370,380.4,368.62,380.38,367.2,380.38Zm64.75,0c-1.39,0-2.77,0-4.15,0-.77,0-.93.24-.92,1,.05,1.84.05,3.68,0,5.52a2.8,2.8,0,0,0,1.29,2.51,7,7,0,0,0,7.71-.08A2.63,2.63,0,0,0,437,387c0-1.94,0-3.88,0-5.82,0-.67-.24-.83-.86-.81C434.78,380.4,433.36,380.38,432,380.38Zm-67.12-6.1c2.52,0,5,0,7.56,0,.4,0,.5-.25.6-.52q2.53-6.52,5.07-13c.19-.49.1-.65-.42-.64-1,0-1.92,0-2.87,0a1.44,1.44,0,0,0-1.43.76c-2.7,4.21-5.44,8.39-8.15,12.59C365,373.65,364.78,373.86,364.83,374.28Zm69.48,0c0-.16,0-.24,0-.28q-4.37-6.75-8.73-13.5a.87.87,0,0,0-.82-.42c-1.09,0-2.17,0-3.26,0-.54,0-.59.18-.41.65,1.7,4.34,3.38,8.7,5.06,13,.11.28.22.52.61.51Z" transform="translate(-356.01 -354.03)"/></svg>