<svg id="Calque_1" data-name="Calque 1" xmlns="http://www.w3.org/2000/svg" xmlns:xlink="http://www.w3.org/1999/xlink" viewBox="0 0 617.6 492"><defs><style>.cls-1{fill:url(#Dégradé_sans_nom_34);}</style><linearGradient id="Dégradé_sans_nom_34" x1="726.15" y1="868.29" x2="1277.81" y2="316.63" gradientUnits="userSpaceOnUse"><stop offset="0.03" stop-color="#c6ee0b"/><stop offset="0.5" stop-color="#00a65b"/><stop offset="0.82" stop-color="#258461"/><stop offset="1" stop-color="#3c6f65"/></linearGradient></defs><title>Picto Medium.</title><path class="cls-1" d="M1066.55,836.22c-2.21-6.21-.56-10.54,3.92-14.78,14.7-13.91,29.3-28,43.38-42.48,3.22-3.32,6-8.79,6-13.28.35-91.24.26-182.48.24-273.73,0-1-.24-2.07-1.73-3.66-1.18,2.75-2.44,5.46-3.53,8.24q-64.82,165-129.61,330c-1.81,4.6-2.45,10-9.89,9.38-6.92-.57-12.65.46-16.66-8.41Q884.05,662.67,808.43,498.32c-1.75-3.82-3.58-7.61-7.35-11.08v8.36Q801,609,800.88,722.36c0,9.11,3.2,16.7,9,23.62,20.34,24.5,40.65,49,60.6,73.84,3,3.74,4,9.09,6.62,15.22-5.73.34-8.87.68-12,.68q-81.76,0-163.55-.08c-3.43,0-6.85-1.5-10.28-2.3,1.16-4.21,1.17-9.34,3.67-12.48,17.48-22,34.91-44,53.5-65,11.62-13.12,16.35-26.76,16.17-44.6-.92-87.73-.5-175.47-.3-263.2,0-9.46-2.61-17-8.82-24.28-17.74-20.69-34.94-41.84-52.28-62.87-1.68-2-3.57-4.33-4.11-6.79-1.16-5.25-.73-9.17,6.88-9.13q82.59.39,165.17,0c5.68,0,8,2.44,10.11,7.1q58.86,129.75,117.94,259.39c5.43,11.92,11,23.79,17.33,37.53,7-17.26,13.13-32.42,19.2-47.62q49.6-124,99-248.09c2.51-6.34,5.73-8.35,12.43-8.31,50.47.27,100.94.1,151.41.25,3.43,0,6.85,1.55,10.28,2.38-1.57,4.28-2,9.68-4.92,12.64-14,14.24-29,27.51-42.84,41.85-3.68,3.8-6.58,10.2-6.6,15.42-.36,115.27-.22,230.54-.39,345.81a22.65,22.65,0,0,0,7.6,17.79c14.07,13.39,27.88,27.06,41.59,40.82a18,18,0,0,1,4.45,8.08c1,4.34-.56,7-5.91,7q-116.19-.21-232.38-.17A16.07,16.07,0,0,1,1066.55,836.22Z" transform="translate(-691.2 -345)"/></svg>