<?xml version="1.0" encoding="utf-8"?>
<!-- Generator: Adobe Illustrator 24.0.3, SVG Export Plug-In . SVG Version: 6.00 Build 0)  -->
<svg version="1.1" id="Calque_1" xmlns="http://www.w3.org/2000/svg" xmlns:xlink="http://www.w3.org/1999/xlink" x="0px" y="0px"
	 viewBox="0 0 994.1 869.8" style="enable-background:new 0 0 994.1 869.8;" xml:space="preserve">
<style type="text/css">
	.st0{fill:#FFFFFF;}
</style>
<title>Picto Connect Wallet CS</title>
<path class="st0" d="M993.9,501.5c0,73.9,0,146.3,0,218.7c0,28.5,0.2,56.9,0,85.4c-0.3,38.5-25.4,64.1-63.8,64.1
	c-287.8,0.1-575.6,0.1-863.5,0c-42.3,0-66.5-25.3-66.4-67.1c0.2-94.7,0.5-189.4-0.2-284.1c-0.1-15.2,3.5-19.7,19.2-19.7
	c155.3,0.6,310.7,0.7,466.1,0.2c11,0,17.6,3.1,24.2,12.2c51.4,71.1,120,122.3,196.5,163.1c32.1,17.1,64.9,11,95.1-7.3
	c71.8-43.5,139-92.3,186.8-163.4C988.6,502.8,990.2,502.8,993.9,501.5z M215.1,683.5v0.2h29.6c10.5,0,21,0.5,31.5-0.2
	c21.3-1.4,33.9-13.4,33.9-31.4c0-17.6-13.7-30.4-34.6-30.6c-38.9-0.4-77.8-0.4-116.7,0.1c-21.1,0.2-34.4,12.5-34.6,30.4
	c-0.3,18.8,11.2,30.3,33.4,31.3C176.8,684.2,196,683.5,215.1,683.5L215.1,683.5z"/>
<path class="st0" d="M993.9,198c0.8,59.5,0.5,110-10.8,160c-15.6,69.2-50.6,126.6-102.1,174.2c-34,31.4-72.9,56.5-112.1,81
	c-13.8,8.6-27.3,10.6-43.2,1.1c-62.7-37.6-121.6-79-165-139.3c-40.3-56-58.4-119.4-61.3-187.1c-2.2-53.8-0.4-107.7-0.6-161.5
	c0-15,4.9-24.9,20.2-31.3c70.7-29.7,141.3-59.7,211.1-91.6c16.2-7.4,28-1.1,40.2,4c66.8,28.1,133,57.6,199.7,86
	c16.5,7,23.9,18.2,23.8,35.5C993.8,154.8,993.9,180.8,993.9,198z M652.8,250.3c-11.6-1.7-20.1,3-25.4,12.2
	c-8.5,14.5-4.8,28.5,4,41.7c17.5,26.1,35.6,51.8,52.6,78.2c17.7,27.5,39.5,29.2,60.2,3.5c24.8-30.6,49.5-61.3,74.2-91.9
	c14.3-17.8,29.1-35.2,43.1-53.2c12.8-16.4,11.1-36.8-3-47.8s-33.7-6.8-46.5,9.3c-29,36.4-58.7,72.4-87.5,109
	c-6.2,7.9-9.3,5.2-13.3-1c-9.1-13.9-18.1-27.8-27.5-41.5C676.1,257.8,668.2,247.2,652.8,250.3z"/>
<path class="st0" d="M446.2,370.4h-60.2c-122.5,0-244.9-0.2-367.4,0.3c-14.7,0.1-18.9-4-18.5-18.6c1.1-34.6,0.2-69.3,0.3-103.9
	c0.2-35.3,25.5-60.9,60.5-60.9c118.2-0.1,236.3,0.2,354.4-0.3c13.3,0,18.2,2.5,17.7,17.1C431.3,259.4,435.9,314.4,446.2,370.4z"/>
</svg>
