<svg id="Calque_1" data-name="Calque 1" xmlns="http://www.w3.org/2000/svg" viewBox="0 0 399.97 447.54"><defs><style>.cls-1{fill:none;}.cls-2{fill:#795e96;}.cls-3{fill:#f25396;}.cls-4{fill:#1b9ad6;}.cls-5{fill:#fff;}</style></defs><title>Picto logo Dessert Finance</title><path class="cls-1" d="M1043,465.34c1.67-24.93-3.71-35.36-8.72-39.71a15.16,15.16,0,0,0-12.81-3.21l-.92.25-.88,0c-19.42-.45-33.44-5.82-41.67-16a31.63,31.63,0,0,1-3.61-5.55c-26.49,24.72-25.93,53.06-24.43,64.22Z" transform="translate(-800.01 -376.23)"/><path class="cls-1" d="M920,501.32h156.59c5.22,0,9.47-4.86,9.47-10.83v-.59c0-6-4.25-10.83-9.47-10.83H920c-5.22,0-9.47,4.86-9.47,10.83v.59C910.51,496.46,914.76,501.32,920,501.32Z" transform="translate(-800.01 -376.23)"/><path class="cls-2" d="M1081.4,562.76l-25.69,80.88H937.17l-23.5-80.88H898l27.86,95.89h140.79l30.89-97.27a19.14,19.14,0,0,1-7.13,1.39Z" transform="translate(-800.01 -376.23)"/><path class="cls-1" d="M1043,465.34c1.67-24.93-3.71-35.36-8.72-39.71a15.16,15.16,0,0,0-12.81-3.21l-.92.25-.88,0c-19.42-.45-33.44-5.82-41.67-16a31.63,31.63,0,0,1-3.61-5.55c-26.49,24.72-25.93,53.06-24.43,64.22Z" transform="translate(-800.01 -376.23)"/><path class="cls-1" d="M920,501.32h156.59c5.22,0,9.47-4.86,9.47-10.83v-.59c0-6-4.25-10.83-9.47-10.83H920c-5.22,0-9.47,4.86-9.47,10.83v.59C910.51,496.46,914.76,501.32,920,501.32Z" transform="translate(-800.01 -376.23)"/><polygon class="cls-3" points="174.64 186.53 219.37 186.53 238.72 172.15 156.31 172.15 174.64 186.53"/><path class="cls-3" d="M1101.42,528.58a17.45,17.45,0,0,1,.63,4.64V534c0,7.93-5.21,14.38-11.6,14.38h-9.3l-14.72,14.38h24a19.14,19.14,0,0,0,7.13-1.39c9.31-3.74,16.07-14.59,16.07-27.37v-.78a34.09,34.09,0,0,0-2.86-13.81Z" transform="translate(-800.01 -376.23)"/><path class="cls-3" d="M898.47,548.38c-6.4,0-11.61-6.45-11.61-14.38v-.78c0-7.93,5.21-14.38,11.61-14.38h180l18-13.38a19,19,0,0,0-5.46-1,23.49,23.49,0,0,0,4.48-14v-.59c0-11.95-8.49-21.67-18.93-21.67h-20.76c2-25.76-2.44-43.46-13.26-52.63-9.23-7.82-19.88-6.64-23.32-6-14.39-.45-25-4.1-30.64-10.56a16.48,16.48,0,0,1-4.29-9.36l.45-13.47-10.91,8.35c-25.43,19.48-33.78,42.5-36.3,58.39a85,85,0,0,0-.27,25.26H920c-10.44,0-18.93,9.72-18.93,21.67v.59a23.57,23.57,0,0,0,4.47,14h-7c-12.8,0-23.21,12.9-23.21,28.76V534c0,15.68,10.18,28.47,22.78,28.75h45.57l-7.79-14.38Zm75.92-147.26a31.63,31.63,0,0,0,3.61,5.55c8.23,10.14,22.25,15.51,41.67,16l.88,0,.92-.25a15.16,15.16,0,0,1,12.81,3.21c5,4.35,10.39,14.78,8.72,39.71H950C948.46,454.18,947.9,425.84,974.39,401.12ZM910.51,489.9c0-6,4.25-10.83,9.47-10.83h156.59c5.22,0,9.47,4.86,9.47,10.83v.59c0,6-4.25,10.83-9.47,10.83H920c-5.22,0-9.47-4.86-9.47-10.83Z" transform="translate(-800.01 -376.23)"/><polygon class="cls-4" points="135.75 162.19 186.58 256.01 358.6 87.91 195.54 209.1 135.75 162.19"/><path class="cls-5" d="M822.11,703.19c14.19,0,24.09,6.53,28.31,16.6A28.68,28.68,0,0,1,852.58,731c0,8.88-3.5,15.59-8.39,20.08-5.09,4.68-12.61,7.72-22.08,7.72h-22V703.19Zm-.49,11.87h-7.81v31.87h7.81c10,0,17.18-6.09,17.18-15.93S831.59,715.06,821.62,715.06Z" transform="translate(-800.01 -376.23)"/><path class="cls-5" d="M908.53,758.8H865.2V703.19h43.08V715H878.89v10.46h27v11.13h-27V747h29.64Z" transform="translate(-800.01 -376.23)"/><path class="cls-5" d="M936.17,718.63c0,2.83,1.83,4.1,4.49,4.65l11.53,2.57c8.58,1.93,15.28,6.45,15.28,16.19,0,9.55-6.51,14.72-14.11,16.85a32.7,32.7,0,0,1-8.8,1.16c-10,0-17.7-3.64-21.67-9.75a17.64,17.64,0,0,1-2.65-7.1h15.14c1.66,3.53,5.18,5.48,9.92,5.48,4.26,0,8.22-1.8,8.22-5.73,0-3.16-2.11-4.27-5.14-4.9l-11.63-2.49q-14.94-3.4-14.94-16.1c0-11.44,10.07-17.52,22-17.52,12.13,0,20.9,6.07,23,16.11H952.39a9.8,9.8,0,0,0-8.75-5.07C939.78,713,936.17,715,936.17,718.63Z" transform="translate(-800.01 -376.23)"/><path class="cls-5" d="M993.37,718.63c0,2.83,1.82,4.1,4.48,4.65l11.54,2.57c8.58,1.93,15.27,6.45,15.27,16.19,0,9.55-6.5,14.72-14.11,16.85a32.65,32.65,0,0,1-8.8,1.16c-10,0-17.69-3.64-21.66-9.75a17.66,17.66,0,0,1-2.66-7.1h15.15c1.65,3.53,5.18,5.48,9.92,5.48,4.26,0,8.22-1.8,8.22-5.73,0-3.16-2.11-4.27-5.15-4.9L994,735.56Q979,732.16,979,719.46c0-11.44,10.06-17.52,22-17.52,12.12,0,20.9,6.07,23,16.11h-14.42a9.77,9.77,0,0,0-8.74-5.07C997,713,993.37,715,993.37,718.63Z" transform="translate(-800.01 -376.23)"/><path class="cls-5" d="M1081,758.8H1037.7V703.19h43.08V715H1051.4v10.46h27v11.13h-27V747H1081Z" transform="translate(-800.01 -376.23)"/><path class="cls-5" d="M1128,739.05l17.43,19.75h-16.52l-16.77-19.09h-4V758.8h-13.7V703.19h28.14c11.44,0,20,7,20,18.18C1142.63,731.07,1136.27,737.21,1128,739.05Zm-6.89-24.16h-13v13.37h13c4.47,0,8-2.44,8-6.73S1125.53,714.89,1121.13,714.89Z" transform="translate(-800.01 -376.23)"/><path class="cls-5" d="M1182,715.14V758.8h-13.61V715.14h-18V703.19H1200v11.95Z" transform="translate(-800.01 -376.23)"/><path class="cls-4" d="M804.24,803.53h19.6v3.8h-19.6v15.74H800V787.19h25.71V791H804.24Z" transform="translate(-800.01 -376.23)"/><path class="cls-4" d="M859.57,823.07V787.19h4.23v35.88Z" transform="translate(-800.01 -376.23)"/><path class="cls-4" d="M932.45,823.07h-3.64l-23.45-28.49v28.49h-4.23V787.19h3.64L928.22,816V787.19h4.23Z" transform="translate(-800.01 -376.23)"/><path class="cls-4" d="M996.51,823.07l-4-9.1h-18.9l-4,9.1H965l16.07-35.88H985l16.06,35.88Zm-13.44-30.63-7.82,17.73h15.58Z" transform="translate(-800.01 -376.23)"/><path class="cls-4" d="M1065.6,823.07H1062l-23.46-28.49v28.49h-4.23V787.19h3.64L1061.37,816V787.19h4.23Z" transform="translate(-800.01 -376.23)"/><path class="cls-4" d="M1128,817.4c2.3-1.61,3.91-2.9,4.84-5.79h4.07a16.3,16.3,0,0,1-6.29,8.87,18.19,18.19,0,0,1-10.79,3.29,18.67,18.67,0,0,1-13.23-5.41,18.32,18.32,0,0,1-4-6,19.12,19.12,0,0,1,0-14.46,18.38,18.38,0,0,1,4-6,18.11,18.11,0,0,1,6-4,18.61,18.61,0,0,1,7.23-1.42,18.37,18.37,0,0,1,10.79,3.24,16,16,0,0,1,6.29,8.65h-4.07c-.89-2.86-2.51-3.91-4.84-5.52a14.74,14.74,0,0,0-13.74-1.28,14.26,14.26,0,0,0-7.69,7.84,15.47,15.47,0,0,0,0,11.41,14.46,14.46,0,0,0,3.08,4.71,14.23,14.23,0,0,0,4.64,3.13A14.68,14.68,0,0,0,1128,817.4Z" transform="translate(-800.01 -376.23)"/><path class="cls-4" d="M1198.69,823.07H1172.5V787.19h26.13V791h-21.9v12.15h20.35V807h-20.35v12.27h22Z" transform="translate(-800.01 -376.23)"/></svg>