<svg xmlns="http://www.w3.org/2000/svg" viewBox="0 0 714.11 730.24"><defs><style>.cls-1{fill:#835c3d;}.cls-2{fill:none;}.cls-3{fill:#6c4728;}.cls-4{fill:#936b4f;}</style></defs><title>Logo Poocoin</title><g id="Calque_2" data-name="Calque 2"><path class="cls-1" d="M1720.47,1017.56c0,.2,0,.39,0,.59-1.75,73-66.12,101.43-72.73,104.14-3.53,1.1-7.08,2.18-10.62,3.21-113.27,33.16-227.61,35-304.63,30.42a1058.19,1058.19,0,0,1-112.84-12.66c-18.54-3.13-30.29-5.73-33.35-6.44-117.61-40.19-104.86-118-104-122.63,8.59-35.11,25-59.27,48.81-71.84,18.87-10,40.07-11.6,58-10.31a163.06,163.06,0,0,1,40.72,8.25,18.79,18.79,0,0,0,13.45-35.09,194,194,0,0,0-52.11-10.71,164.66,164.66,0,0,0-42.52,2.4c-19.47-65-3.81-97.31-2.53-99.76a12.26,12.26,0,0,0,1.31-2.61c8-19.68,20.53-32.76,38.16-39.95,23.4-9.55,51.43-7.1,73.27-2.42a217.17,217.17,0,0,1,36.22,11,18.8,18.8,0,0,0,15-34.47,208.22,208.22,0,0,0-21.38-7.65,248.05,248.05,0,0,0-48-9.7c19.72-75,63.35-131,130.12-166.91a319.33,319.33,0,0,1,30.62-14.4,359.24,359.24,0,0,1,51.55-16.54,403.23,403.23,0,0,1,46-8.31c-19.32,33.55-25.57,66.94-18.55,99.67,16.15,75.37,97.57,117.66,105.28,121.52,66,36.38,70.55,67.47,70.88,71.36a6.68,6.68,0,0,0,0,2c.72,24.77-9.69,51.08-17.24,66.76a299.88,299.88,0,0,0-29.79-10c-7.53-2.11-14.89-3.91-21.9-5.38a18.8,18.8,0,0,0-7.75,36.8A287.77,287.77,0,0,1,1619.14,899C1722.42,936.52,1720.62,1014,1720.47,1017.56Z" transform="translate(-1043.96 -465.1)"/><path class="cls-2" d="M1370.76,544.44c-38.13,52.57-76.21,118.19-82.07,176.62a213.24,213.24,0,0,1,21.38,7.65,18.8,18.8,0,0,1-15,34.47,216.78,216.78,0,0,0-36.22-11c-41.75,19.81-109.25,65.56-67.69,142.34a194.22,194.22,0,0,1,52.12,10.71,18.8,18.8,0,0,1-13.47,35.1,162.65,162.65,0,0,0-40.71-8.26c-29.92,28.88-77.8,101.34,30.55,211.22a1057.94,1057.94,0,0,0,112.83,12.66c77,4.54,191.37,2.75,304.63-30.42,62.72-105.39,11-191.08-18-226.55a289,289,0,0,0-39.27-11.07,18.8,18.8,0,1,1,7.74-36.79c7,1.48,14.36,3.27,21.9,5.38,10-76.66-79-127.2-79-127.2-85.79-59.74-90.53-148.33-77.54-215.76A360.11,360.11,0,0,0,1401.38,530,321.91,321.91,0,0,0,1370.76,544.44Z" transform="translate(-1043.96 -465.1)"/><path class="cls-3" d="M1530.48,729.27s89.06,50.54,79,127.2a301.61,301.61,0,0,1,29.79,10c7.55-15.68,18-42,17.25-66.75a6.8,6.8,0,0,1,0-2c-.31-3.91-4.91-35-70.87-71.37-7.72-3.86-89.14-46.15-105.29-121.52-7-32.73-.77-66.13,18.56-99.67a402.32,402.32,0,0,0-46,8.31C1440,580.94,1444.69,669.53,1530.48,729.27Z" transform="translate(-1043.96 -465.1)"/><path class="cls-3" d="M1637.1,1125.5q5.33-1.56,10.64-3.21c6.59-2.72,71-31.13,72.71-104.14,0-.2,0-.39,0-.59.14-3.53,1.94-81-101.33-118.61C1648.05,934.42,1699.82,1020.11,1637.1,1125.5Z" transform="translate(-1043.96 -465.1)"/><path class="cls-4" d="M1189.09,932c-17.9-1.29-39.1.36-58,10.32-23.81,12.56-40.23,36.72-48.8,71.83-.88,4.65-13.64,82.43,104,122.64,3,.7,14.82,3.29,33.35,6.43C1111.29,1033.38,1159.17,960.92,1189.09,932Z" transform="translate(-1043.96 -465.1)"/><path class="cls-4" d="M1258.84,752.15c-21.85-4.68-49.87-7.13-73.26,2.41-17.65,7.2-30.13,20.27-38.17,40a12.58,12.58,0,0,1-1.31,2.62c-1.27,2.45-16.94,34.76,2.54,99.76a164.1,164.1,0,0,1,42.51-2.4C1149.59,817.71,1217.09,772,1258.84,752.15Z" transform="translate(-1043.96 -465.1)"/><path class="cls-4" d="M1240.64,711.37a246.62,246.62,0,0,1,48,9.69c5.86-58.43,43.94-124,82.07-176.62C1304,580.34,1260.35,636.32,1240.64,711.37Z" transform="translate(-1043.96 -465.1)"/><path d="M1738.57,947.58c-16.25-28.8-39.82-49.61-65.44-64.66,9.21-19.13,21.74-51.3,21-83.53.34-10.61-3.42-58.13-90.69-106.14l-.78-.41c-.74-.36-72.91-36.48-85.54-96-6.74-31.65,4.77-65.58,34.19-100.89a18.81,18.81,0,0,0-14-30.83c-1.89-.05-32-.59-73.93,7.57a430.55,430.55,0,0,0-44.61,11.21c-9.89,3.09-20,6.66-30.34,10.83-69.24,28-156.61,88.3-186.66,217.12a124.54,124.54,0,0,0-30.24,7.83c-26.82,10.91-46.49,30.9-58.44,59.45-5.14,9.4-24,51.66.05,130.22-33.59,17.9-56.28,50.28-67.44,96.29l-.1.45c-.67,3.07-6.15,31.07,7.54,65.74,12.4,31.4,43.61,74.39,122,100.91.54.18,1.1.34,1.65.47,1.93.46,37.42,8.83,93.93,15.15,17.64,2,37.32,3.76,58.7,5,19.56,1.17,41.42,1.94,65,1.94,60.64,0,132.81-5.11,206.78-21.77,19.42-4.38,38.94-9.53,58.42-15.61.39-.12.77-.25,1.15-.39,1-.38,24.34-9.5,47.73-30.82,31.37-28.59,48.5-65.79,49.53-107.57C1758.18,1014.85,1758.59,983.05,1738.57,947.58Zm-18.1,70c0,.2,0,.39,0,.59-1.75,73-66.12,101.43-72.73,104.14-3.53,1.1-7.08,2.18-10.62,3.21-113.27,33.16-227.61,35-304.63,30.42a1058.19,1058.19,0,0,1-112.84-12.66c-18.54-3.13-30.29-5.73-33.35-6.44-117.61-40.19-104.86-118-104-122.63,8.59-35.11,25-59.27,48.81-71.84,18.87-10,40.07-11.6,58-10.31a163.06,163.06,0,0,1,40.72,8.25,18.79,18.79,0,0,0,13.45-35.09,194,194,0,0,0-52.11-10.71,164.66,164.66,0,0,0-42.52,2.4c-19.47-65-3.81-97.31-2.53-99.76a12.26,12.26,0,0,0,1.31-2.61c8-19.68,20.53-32.76,38.16-39.95,23.4-9.55,51.43-7.1,73.27-2.42a217.17,217.17,0,0,1,36.22,11,18.8,18.8,0,0,0,15-34.47,208.22,208.22,0,0,0-21.38-7.65,248.05,248.05,0,0,0-48-9.7c19.72-75,63.35-131,130.12-166.91a319.33,319.33,0,0,1,30.62-14.4,359.24,359.24,0,0,1,51.55-16.54,403.23,403.23,0,0,1,46-8.31c-19.32,33.55-25.57,66.94-18.55,99.67,16.15,75.37,97.57,117.66,105.28,121.52,66,36.38,70.55,67.47,70.88,71.36a6.68,6.68,0,0,0,0,2c.72,24.77-9.69,51.08-17.24,66.76a299.88,299.88,0,0,0-29.79-10c-7.53-2.11-14.89-3.91-21.9-5.38a18.8,18.8,0,0,0-7.75,36.8A287.77,287.77,0,0,1,1619.14,899C1722.42,936.52,1720.62,1014,1720.47,1017.56Z" transform="translate(-1043.96 -465.1)"/><circle cx="295.87" cy="416.23" r="34.63"/><circle cx="426.34" cy="416.23" r="34.63"/><path d="M1404.71,1060a126.24,126.24,0,0,1-30.29-3.71c-26.84-6.63-44-20-44.73-20.62a16.35,16.35,0,0,1,20.22-25.69c2.16,1.67,51.39,38.69,111.4-.79a16.35,16.35,0,0,1,18,27.32C1452,1054.44,1426.24,1060,1404.71,1060Z" transform="translate(-1043.96 -465.1)"/></g></svg>