<svg id="Calque_1" data-name="Calque 1" xmlns="http://www.w3.org/2000/svg" viewBox="0 0 230.27 277.58"><defs><style>.cls-1{fill:none;stroke:#bfd10a;stroke-miterlimit:10;stroke-width:21px;}</style></defs><title>PICTO SEED$ DAPP</title><path class="cls-1" d="M369,313.46c.07,3.39.06,6.77-.18,10.13-1.24,17.36-1.46,34.3,1.54,51.05a121.94,121.94,0,0,0,19.57,48C328,395.12,332,336.43,317.24,285.83c-46,78-16.05,187.32,58.41,219,17.18,7.31,32.71,11.08,46.6,11.56,18.81.65,34.52-4.86,47.17-15.95,16-14,27.1-37,33-68.17,8.86-46.84-9.58-85.76-43.11-117.79-27.6-26.37-59.94-44.28-95.88-51.88,1.76,18,5.18,34.65,5.55,50.86" transform="translate(-284.86 -249.36)"/></svg>