<svg id="Calque_1" data-name="Calque 1" xmlns="http://www.w3.org/2000/svg" xmlns:xlink="http://www.w3.org/1999/xlink" viewBox="0 0 1032.35 868.84"><defs><style>.cls-1{fill:url(#Dégradé_sans_nom_32);}</style><linearGradient id="Dégradé_sans_nom_32" x1="1196.71" y1="1156.12" x2="1913.04" y2="439.79" gradientUnits="userSpaceOnUse"><stop offset="0.03" stop-color="#c6ee0b"/><stop offset="0.5" stop-color="#00a65b"/><stop offset="0.82" stop-color="#258461"/><stop offset="1" stop-color="#3c6f65"/></linearGradient></defs><title>Picto Telegram CS</title><path class="cls-1" d="M1434.88,1098.42l-63,60.86c-16.23,15.69-32.18,31.67-48.76,47-12.27,11.32-26,20.55-42.78,24.16a37,37,0,0,1-4.56.63c-1.16.1-2.33,0-4.11,0,.44-6.52.8-12.76,1.29-19q7.14-91.78,14.33-183.55c1-12.44,1.83-24.89,3.08-37.31a10.32,10.32,0,0,1,3.3-5.85q72.42-66.39,145-132.59Q1583.31,720.58,1728,588.35a52.39,52.39,0,0,0,8.41-9.57c2.73-4.15,1.05-8-3.72-9.65a25,25,0,0,0-19.45,1.42,154.24,154.24,0,0,0-14.52,8.6L1189.79,899.42c-9.4,5.91-18.88,11.7-28.18,17.77a9.08,9.08,0,0,1-8.55,1.16q-113.3-34.87-226.66-69.54c-8.62-2.64-17.52-4.85-25.56-8.77-16.75-8.14-20-21.48-9.92-37.21,5.84-9.15,14.45-15.17,24.11-19.23q35.15-14.79,70.74-28.52,218.76-84.55,437.6-168.89,211.88-81.77,423.79-163.46a85.82,85.82,0,0,1,20.26-5.24c22.12-2.7,41,10.73,47.53,33.3,4.12,14.19,2.9,28.46-.12,42.63q-26,122.26-52,244.51-32.67,153.57-65.28,307.17c-13.13,61.8-26.1,123.63-39.53,185.37a142.13,142.13,0,0,1-9.91,30c-10.45,22.21-27.84,29.69-51.59,23.27a98.52,98.52,0,0,1-33.45-16.12q-112.1-83.45-224.39-166.61C1437.54,1100.23,1436.41,1099.48,1434.88,1098.42Z" transform="translate(-885.24 -417.14)"/></svg>