<svg id="Calque_1" data-name="Calque 1" xmlns="http://www.w3.org/2000/svg" xmlns:xlink="http://www.w3.org/1999/xlink" viewBox="0 0 1029.41 838.35"><defs><style>.cls-1{fill:url(#Dégradé_sans_nom_32);}</style><linearGradient id="Dégradé_sans_nom_32" x1="914.55" y1="1160.3" x2="1779.15" y2="295.7" gradientUnits="userSpaceOnUse"><stop offset="0.03" stop-color="#c6ee0b"/><stop offset="0.5" stop-color="#00a65b"/><stop offset="0.82" stop-color="#258461"/><stop offset="1" stop-color="#3c6f65"/></linearGradient></defs><title>Picto Twitter CS</title><path class="cls-1" d="M905.82,1151.27c115,11.38,218.78-17.24,310.85-87.51-58.09-2.91-107.76-24.43-148.17-66.27-22.29-23.07-38.24-50.09-48.3-81.18a215.17,215.17,0,0,0,94.86-3.71C1008.59,890,944,795.73,946,702.53a214.09,214.09,0,0,0,95.36,26.27c-45.81-32.29-75.86-74.53-88.19-128.53S949,495.13,976.06,446.36c5,5.81,9.63,11.32,14.38,16.73A601,601,0,0,0,1149.69,592a594.65,594.65,0,0,0,180.65,65.66,601.32,601.32,0,0,0,78.68,9.61c3.1.17,3.27-.73,2.75-3.34-12.4-62.45-.62-119.89,37.32-171.11,31.12-42,72.71-69.2,124-80.06,64.88-13.75,124,.11,176.72,40.38a175.43,175.43,0,0,1,21.09,19.14,4.6,4.6,0,0,0,5,1.6,423.78,423.78,0,0,0,126.77-48c1.18-.67,2.37-1.32,3.57-2a4.65,4.65,0,0,1,1.08-.07c-16.34,49.21-45.7,87.91-89.82,115.44,13.56-1,26.81-3.5,40-6.4a404.94,404.94,0,0,0,39.15-10.8c13-4.24,25.6-9.28,38.67-14-4.66,6.44-9.21,13-14,19.31a425.15,425.15,0,0,1-88.07,86.88,6.06,6.06,0,0,0-2.75,5.89,573.67,573.67,0,0,1-5.22,104.21,633,633,0,0,1-128.45,300.26c-49.11,62.37-108.31,112.89-178.15,150.78A571.74,571.74,0,0,1,1359.32,1233a644.14,644.14,0,0,1-159.17,12.2A598.62,598.62,0,0,1,907.82,1153C907.09,1152.5,906.11,1152.29,905.82,1151.27Z" transform="translate(-905.82 -407.58)"/></svg>