<svg id="Calque_1" data-name="Calque 1" xmlns="http://www.w3.org/2000/svg" xmlns:xlink="http://www.w3.org/1999/xlink" viewBox="0 0 672.43 106.05"><defs><style>.cls-1{fill:#fff;}.cls-2{fill:url(#Dégradé_sans_nom_41);}.cls-3{fill:url(#Dégradé_sans_nom_3);}.cls-4{fill:url(#Dégradé_sans_nom_41-2);}.cls-5{fill:url(#Dégradé_sans_nom_8);}.cls-6{fill:url(#Dégradé_sans_nom_41-3);}.cls-7{fill:url(#Dégradé_sans_nom_3-2);}.cls-8{fill:url(#Dégradé_sans_nom_41-4);}.cls-9{fill:url(#Dégradé_sans_nom_8-2);}.cls-10{fill:url(#Dégradé_sans_nom_41-5);}.cls-11{fill:url(#Dégradé_sans_nom_3-3);}.cls-12{fill:url(#Dégradé_sans_nom_41-6);}.cls-13{fill:url(#Dégradé_sans_nom_8-3);}.cls-14{fill:url(#Dégradé_sans_nom_41-7);}.cls-15{fill:url(#Dégradé_sans_nom_3-4);}.cls-16{fill:url(#Dégradé_sans_nom_41-8);}.cls-17{fill:url(#Dégradé_sans_nom_8-4);}</style><linearGradient id="Dégradé_sans_nom_41" x1="634.16" y1="837.9" x2="675.93" y2="796.13" gradientTransform="translate(-836.19 -59.05) rotate(-27.45)" gradientUnits="userSpaceOnUse"><stop offset="0.06" stop-color="#d5f600"/><stop offset="0.15" stop-color="#afe11a"/><stop offset="0.25" stop-color="#89cb34"/><stop offset="0.35" stop-color="#6bbb49"/><stop offset="0.45" stop-color="#55af58"/><stop offset="0.54" stop-color="#48a761"/><stop offset="0.63" stop-color="#44a564"/><stop offset="1" stop-color="#447a64"/></linearGradient><linearGradient id="Dégradé_sans_nom_3" x1="660.66" y1="832.93" x2="628.66" y2="800.93" gradientTransform="translate(-836.19 -59.05) rotate(-27.45)" gradientUnits="userSpaceOnUse"><stop offset="0" stop-color="#038248"/><stop offset="0.11" stop-color="#0a8545"/><stop offset="0.27" stop-color="#1c8e3e"/><stop offset="0.45" stop-color="#3a9c33"/><stop offset="0.66" stop-color="#64b022"/><stop offset="0.87" stop-color="#99c90d"/><stop offset="1" stop-color="#bbd900"/></linearGradient><linearGradient id="Dégradé_sans_nom_41-2" x1="-72.24" y1="-150.73" x2="-110.55" y2="-189.04" gradientTransform="translate(86.53 567.05) rotate(36.62)" xlink:href="#Dégradé_sans_nom_41"/><radialGradient id="Dégradé_sans_nom_8" cx="644.91" cy="821.63" r="10.57" gradientTransform="translate(-836.19 -59.05) rotate(-27.45)" gradientUnits="userSpaceOnUse"><stop offset="0" stop-color="#d9e021"/><stop offset="1" stop-color="#438664"/></radialGradient><linearGradient id="Dégradé_sans_nom_41-3" x1="2465.83" y1="-1389.47" x2="2507.6" y2="-1431.24" gradientTransform="translate(-2234.38 -1163.24) rotate(62.55)" xlink:href="#Dégradé_sans_nom_41"/><linearGradient id="Dégradé_sans_nom_3-2" x1="2492.32" y1="-1394.45" x2="2460.33" y2="-1426.44" gradientTransform="translate(-2234.38 -1163.24) rotate(62.55)" xlink:href="#Dégradé_sans_nom_3"/><linearGradient id="Dégradé_sans_nom_41-4" x1="-36.83" y1="-167.63" x2="-69.65" y2="-200.45" gradientTransform="translate(86.53 567.05) rotate(36.62)" xlink:href="#Dégradé_sans_nom_41"/><radialGradient id="Dégradé_sans_nom_8-2" cx="2476.58" cy="-1405.75" r="10.57" gradientTransform="translate(-2234.38 -1163.24) rotate(62.55)" xlink:href="#Dégradé_sans_nom_8"/><linearGradient id="Dégradé_sans_nom_41-5" x1="238.46" y1="-3221.14" x2="280.22" y2="-3262.91" gradientTransform="translate(-1130.19 -2561.43) rotate(152.55)" xlink:href="#Dégradé_sans_nom_41"/><linearGradient id="Dégradé_sans_nom_3-3" x1="264.95" y1="-3226.12" x2="232.96" y2="-3258.11" gradientTransform="translate(-1130.19 -2561.43) rotate(152.55)" xlink:href="#Dégradé_sans_nom_3"/><linearGradient id="Dégradé_sans_nom_41-6" x1="-19.93" y1="-126.33" x2="-58.24" y2="-164.64" gradientTransform="translate(86.53 567.05) rotate(36.62)" xlink:href="#Dégradé_sans_nom_41"/><radialGradient id="Dégradé_sans_nom_8-3" cx="249.2" cy="-3237.41" r="10.57" gradientTransform="translate(-1130.19 -2561.43) rotate(152.55)" xlink:href="#Dégradé_sans_nom_8"/><linearGradient id="Dégradé_sans_nom_41-7" x1="-1593.21" y1="-993.77" x2="-1551.45" y2="-1035.53" gradientTransform="translate(268 -1457.23) rotate(-117.45)" xlink:href="#Dégradé_sans_nom_41"/><linearGradient id="Dégradé_sans_nom_3-4" x1="-1566.72" y1="-998.74" x2="-1598.71" y2="-1030.74" gradientTransform="translate(268 -1457.23) rotate(-117.45)" xlink:href="#Dégradé_sans_nom_3"/><linearGradient id="Dégradé_sans_nom_41-8" x1="-61.23" y1="-115.33" x2="-94.05" y2="-148.14" gradientTransform="translate(86.53 567.05) rotate(36.62)" xlink:href="#Dégradé_sans_nom_41"/><radialGradient id="Dégradé_sans_nom_8-4" cx="-1582.47" cy="-1010.04" r="10.57" gradientTransform="translate(268 -1457.23) rotate(-117.45)" xlink:href="#Dégradé_sans_nom_8"/></defs><title>LOGO CLOVER SEED$</title><path class="cls-1" d="M215.34,399.76a17.84,17.84,0,0,0,17.83,17.83H251v-6.36H233.17a11.47,11.47,0,1,1,0-22.93H251v-6.37H233.17A17.85,17.85,0,0,0,215.34,399.76Z" transform="translate(-74.9 -346.57)"/><path class="cls-1" d="M270.61,406.9V382h-6.36v24.3a11,11,0,0,0,1.17,5,11.29,11.29,0,0,0,5.14,5.19,11,11,0,0,0,5,1.18h18.08v-6.37l-18.7,0A5.09,5.09,0,0,1,270.61,406.9Z" transform="translate(-74.9 -346.57)"/><path class="cls-1" d="M319.52,381.93a17.83,17.83,0,1,0,17.84,17.83A17.85,17.85,0,0,0,319.52,381.93Zm0,29.3A11.47,11.47,0,1,1,331,399.76,11.49,11.49,0,0,1,319.52,411.23Z" transform="translate(-74.9 -346.57)"/><polygon class="cls-1" points="298.37 41.73 290.58 57.01 282.78 41.73 279.52 35.36 272.39 35.36 275.65 41.73 290.58 71.02 305.51 41.73 308.77 35.36 301.63 35.36 298.37 41.73"/><path class="cls-1" d="M392.74,391.56V408a9.61,9.61,0,0,0,9.58,9.63h26v-6.36h-26a3.29,3.29,0,0,1-3.27-3.27v-6.72H422v-6.37H399.05v-3.31a3.29,3.29,0,0,1,3.27-3.26h26v-6.37h-26A9.61,9.61,0,0,0,392.74,391.56Z" transform="translate(-74.9 -346.57)"/><path class="cls-1" d="M473.64,391.61a9.79,9.79,0,0,0-2.8-6.83,9.56,9.56,0,0,0-6.78-2.8H441.54v35.67h6.37V401.24h6.37a6.3,6.3,0,0,1,5.4,3.06l.16.3,3.41,6.68,3.26,6.37h7.13l-3.26-6.37-5.09-10.14a8.41,8.41,0,0,0,2.75-.77A9.65,9.65,0,0,0,473.64,391.61Zm-8.25,3a3,3,0,0,1-1.33.3l-16.15.05v-6.57h16.15a3.21,3.21,0,0,1,2.3.92,3.37,3.37,0,0,1,1,2.34A3.25,3.25,0,0,1,465.39,394.57Z" transform="translate(-74.9 -346.57)"/><path class="cls-1" d="M544,381.93H529.53a9.61,9.61,0,0,0-9.58,9.63v.2a9.44,9.44,0,0,0,1.69,5.45,8.63,8.63,0,0,0,1.22,1.53,9.51,9.51,0,0,0,6.67,2.7h12.84a4.9,4.9,0,1,1,0,9.79H531.21a4.9,4.9,0,0,1-4.89-4.9H520a11.26,11.26,0,0,0,11.26,11.26h11.16a11.26,11.26,0,0,0,8.71-18.39c-.15-.15-.25-.3-.4-.46a11.21,11.21,0,0,0-8.31-3.67H529.53a3.28,3.28,0,0,1-3.26-3.26v-.2a3.29,3.29,0,0,1,3.26-3.26H544a3.28,3.28,0,0,1,3.26,3.26v.2l6.37-.05v-.2A9.65,9.65,0,0,0,544,381.93Z" transform="translate(-74.9 -346.57)"/><path class="cls-1" d="M566.93,391.56V408a9.61,9.61,0,0,0,9.58,9.63h26v-6.36h-26a3.28,3.28,0,0,1-3.26-3.27v-6.72h22.92v-6.37H573.25v-3.31a3.28,3.28,0,0,1,3.26-3.26h26v-6.37h-26A9.61,9.61,0,0,0,566.93,391.56Z" transform="translate(-74.9 -346.57)"/><path class="cls-1" d="M615.84,391.56V408a9.61,9.61,0,0,0,9.58,9.63h26v-6.36h-26a3.28,3.28,0,0,1-3.26-3.27v-6.72h22.92v-6.37H622.16v-3.31a3.28,3.28,0,0,1,3.26-3.26h26v-6.37h-26A9.61,9.61,0,0,0,615.84,391.56Z" transform="translate(-74.9 -346.57)"/><path class="cls-1" d="M682.48,382l-17.78-.05v35.66h17.83a17.5,17.5,0,0,0,12.53-5.24c.36-.36.72-.72,1-1.07a17.79,17.79,0,0,0-13.6-29.3Zm0,29.3H671V388.35h11.47a11.47,11.47,0,0,1,0,22.93Z" transform="translate(-74.9 -346.57)"/><path class="cls-1" d="M747.34,391.76v-.2a9.65,9.65,0,0,0-9.63-9.63h-2V375.5h-9.25v6.43h-3.24a9.61,9.61,0,0,0-9.58,9.63v.2a9.44,9.44,0,0,0,1.68,5.45,9.11,9.11,0,0,0,1.22,1.53,9.54,9.54,0,0,0,6.68,2.7h12.84a4.9,4.9,0,1,1,0,9.79H724.92a4.9,4.9,0,0,1-4.89-4.9h-6.37a11.26,11.26,0,0,0,11.26,11.26h1.56v6.23h9.25v-6.23h.35a11.26,11.26,0,0,0,8.71-18.39c-.15-.15-.26-.3-.41-.46a11.19,11.19,0,0,0-8.3-3.67H723.24a3.27,3.27,0,0,1-3.26-3.26v-.2a3.28,3.28,0,0,1,3.26-3.26h14.47a3.29,3.29,0,0,1,3.26,3.26v.2Z" transform="translate(-74.9 -346.57)"/><path class="cls-2" d="M126.7,361.76a15.35,15.35,0,0,1,1.15,12.39l-4.93,15.59-15.59-4.93a16.41,16.41,0,0,1-4.34-2.05,15.14,15.14,0,0,0,7.07,4.45l15.59,4.93,4.93-15.59a15.35,15.35,0,0,0-1.15-12.39v0a15.83,15.83,0,0,0-5.11-5.86,16.44,16.44,0,0,1,2.38,3.46Z" transform="translate(-74.9 -346.57)"/><path class="cls-3" d="M93.47,364.82a21.53,21.53,0,0,1,11.1-13.24h0a21.61,21.61,0,0,1,17.22-1.47,22.85,22.85,0,0,1,6.73,3.37,22,22,0,0,0-9.46-5.77,21.61,21.61,0,0,0-17.22,1.47h0a21.53,21.53,0,0,0-11.1,13.24,23.09,23.09,0,0,0,8,25.12A22.92,22.92,0,0,1,94.94,382,21.83,21.83,0,0,1,93.47,364.82Z" transform="translate(-74.9 -346.57)"/><path class="cls-4" d="M128.52,353.48a22.85,22.85,0,0,0-6.73-3.37,21.61,21.61,0,0,0-17.22,1.47h0a21.53,21.53,0,0,0-11.1,13.24A21.83,21.83,0,0,0,94.94,382a22.92,22.92,0,0,0,3.84,5.51,22.69,22.69,0,0,0,6.64,3.31L127,397.68l6.84-21.62a21.73,21.73,0,0,0-1.58-17.26A23.21,23.21,0,0,0,128.52,353.48Zm2.06,23.07-4.93,15.59-15.59-4.93a15.14,15.14,0,0,1-7.07-4.45,17.24,17.24,0,0,1-2.42-3.61v0a15.51,15.51,0,0,1-1.06-12.4,16.19,16.19,0,0,1,20.38-10.59,16.67,16.67,0,0,1,4.43,2.13,15.83,15.83,0,0,1,5.11,5.86v0A15.35,15.35,0,0,1,130.58,376.55Z" transform="translate(-74.9 -346.57)"/><path class="cls-5" d="M119.1,387.13a7.18,7.18,0,0,0,.22-1.89,9.31,9.31,0,0,0-.18-1.83A11.77,11.77,0,0,0,117.9,380l-.22-.39-.24-.4-.49-.83c-.32-.55-.64-1.11-1-1.67-.62-1.12-1.24-2.25-1.83-3.39s-1.16-2.28-1.72-3.44c-.27-.58-.56-1.16-.82-1.74l-.2-.44-.11-.23a2.44,2.44,0,0,1-.1-.24c-.13-.32-.24-.64-.35-.95a16.05,16.05,0,0,1-.8-3.93,11.12,11.12,0,0,1,.05-2,7.25,7.25,0,0,1,.49-1.91,10.83,10.83,0,0,0,.14,1.9,16.14,16.14,0,0,0,.41,1.83,23.24,23.24,0,0,0,1.34,3.45l.42.81.11.19.11.19.24.42c.33.55.64,1.11,1,1.67.62,1.12,1.23,2.25,1.82,3.38s1.16,2.29,1.72,3.44c.27.58.55,1.16.82,1.75l.4.87.2.46c.07.15.13.31.19.47s.12.32.18.48l.15.5a8.1,8.1,0,0,1,.24,1,9.32,9.32,0,0,1,.17,2,8.33,8.33,0,0,1-.29,2A5.71,5.71,0,0,1,119.1,387.13Z" transform="translate(-74.9 -346.57)"/><path class="cls-6" d="M165.76,398.37a15.35,15.35,0,0,1-12.39,1.15l-15.59-4.93L142.71,379a16.41,16.41,0,0,1,2-4.34,15.22,15.22,0,0,0-4.45,7.07l-4.93,15.59L151,402.25a15.35,15.35,0,0,0,12.39-1.15h0a15.83,15.83,0,0,0,5.86-5.11,16.44,16.44,0,0,1-3.46,2.38Z" transform="translate(-74.9 -346.57)"/><path class="cls-7" d="M162.7,365.14a21.53,21.53,0,0,1,13.24,11.1h0a21.61,21.61,0,0,1,1.47,17.22,22.85,22.85,0,0,1-3.37,6.73,22,22,0,0,0,5.77-9.46,21.61,21.61,0,0,0-1.47-17.22h0a21.53,21.53,0,0,0-13.24-11.1,23.09,23.09,0,0,0-25.12,8,22.92,22.92,0,0,1,5.51-3.84A21.83,21.83,0,0,1,162.7,365.14Z" transform="translate(-74.9 -346.57)"/><path class="cls-8" d="M174,400.19a22.85,22.85,0,0,0,3.37-6.73,21.61,21.61,0,0,0-1.47-17.22h0a21.53,21.53,0,0,0-13.24-11.1,21.83,21.83,0,0,0-17.21,1.47,22.92,22.92,0,0,0-5.51,3.84,22.69,22.69,0,0,0-3.31,6.64l-6.83,21.62,21.62,6.84A21.73,21.73,0,0,0,168.72,404,23.21,23.21,0,0,0,174,400.19ZM151,402.25l-15.59-4.93,4.93-15.59a15.22,15.22,0,0,1,4.45-7.07,17.24,17.24,0,0,1,3.61-2.42h0a15.51,15.51,0,0,1,12.4-1.06,16.19,16.19,0,0,1,10.59,20.38,16.37,16.37,0,0,1-2.13,4.43,15.83,15.83,0,0,1-5.86,5.11h0A15.35,15.35,0,0,1,151,402.25Z" transform="translate(-74.9 -346.57)"/><path class="cls-9" d="M140.39,390.77a7.18,7.18,0,0,0,1.89.22,9.31,9.31,0,0,0,1.83-.18,11.77,11.77,0,0,0,3.37-1.24l.39-.22.4-.24.83-.49,1.67-.95c1.12-.62,2.25-1.24,3.39-1.83s2.29-1.16,3.44-1.72c.58-.27,1.16-.56,1.74-.82l.44-.2L160,383l.24-.1c.32-.13.64-.24.95-.35a16.05,16.05,0,0,1,3.93-.8,11.12,11.12,0,0,1,2,.05,7.25,7.25,0,0,1,1.91.49,10.83,10.83,0,0,0-1.9.14,16.14,16.14,0,0,0-1.83.41,22.71,22.71,0,0,0-3.44,1.34l-.82.42-.19.11-.19.11-.42.24c-.55.33-1.11.64-1.67,1-1.12.62-2.25,1.23-3.38,1.82s-2.29,1.16-3.44,1.72l-1.74.82-.88.4-.46.2-.47.19-.48.18-.5.15a8.1,8.1,0,0,1-1,.24,9.32,9.32,0,0,1-2,.17,8.33,8.33,0,0,1-2-.29A5.82,5.82,0,0,1,140.39,390.77Z" transform="translate(-74.9 -346.57)"/><path class="cls-10" d="M129.15,437.43A15.35,15.35,0,0,1,128,425l4.93-15.59,15.6,4.93a16.49,16.49,0,0,1,4.33,2.05,15.22,15.22,0,0,0-7.07-4.45l-15.59-4.93-4.93,15.59A15.35,15.35,0,0,0,126.42,435v0a15.83,15.83,0,0,0,5.11,5.86,16.44,16.44,0,0,1-2.38-3.46Z" transform="translate(-74.9 -346.57)"/><path class="cls-11" d="M162.38,434.37a21.53,21.53,0,0,1-11.1,13.24h0a21.61,21.61,0,0,1-17.22,1.47,23,23,0,0,1-6.73-3.37,22.06,22.06,0,0,0,9.46,5.77A21.61,21.61,0,0,0,154,450h0a21.53,21.53,0,0,0,11.1-13.24,23.09,23.09,0,0,0-8-25.12,22.92,22.92,0,0,1,3.84,5.51A21.83,21.83,0,0,1,162.38,434.37Z" transform="translate(-74.9 -346.57)"/><path class="cls-12" d="M127.33,445.71a23,23,0,0,0,6.73,3.37,21.61,21.61,0,0,0,17.22-1.47h0a21.53,21.53,0,0,0,11.1-13.24,21.83,21.83,0,0,0-1.47-17.21,22.92,22.92,0,0,0-3.84-5.51,22.57,22.57,0,0,0-6.64-3.31l-21.62-6.83L122,423.13a21.7,21.7,0,0,0,1.59,17.26A22.87,22.87,0,0,0,127.33,445.71Zm-2.06-23.07,4.93-15.59L145.79,412a15.22,15.22,0,0,1,7.07,4.45,17.24,17.24,0,0,1,2.42,3.61l0,0a15.55,15.55,0,0,1,1,12.4A16.19,16.19,0,0,1,136,443.05a16.37,16.37,0,0,1-4.43-2.13,15.83,15.83,0,0,1-5.11-5.86v0A15.35,15.35,0,0,1,125.27,422.64Z" transform="translate(-74.9 -346.57)"/><path class="cls-13" d="M136.75,412.06a7.18,7.18,0,0,0-.22,1.89,9.31,9.31,0,0,0,.18,1.83,11.77,11.77,0,0,0,1.24,3.37l.22.39.24.4.49.83c.32.55.64,1.12.95,1.67q.94,1.68,1.83,3.39c.59,1.14,1.16,2.29,1.72,3.44.28.58.56,1.16.82,1.74l.2.44.11.23a2.44,2.44,0,0,1,.1.24c.13.32.24.64.35.95a16.05,16.05,0,0,1,.8,3.93,11.12,11.12,0,0,1-.05,2,7.24,7.24,0,0,1-.48,1.91,11.88,11.88,0,0,0-.15-1.9,16.14,16.14,0,0,0-.41-1.83,22.71,22.71,0,0,0-1.34-3.44l-.42-.82-.11-.19-.11-.19-.24-.42c-.33-.55-.64-1.11-.95-1.67-.63-1.12-1.24-2.25-1.83-3.38s-1.16-2.29-1.72-3.44l-.82-1.74-.4-.88-.2-.46c-.07-.15-.13-.31-.19-.47s-.12-.32-.18-.48l-.15-.5a8.1,8.1,0,0,1-.24-1,9.32,9.32,0,0,1-.17-2,8.33,8.33,0,0,1,.29-2A5.82,5.82,0,0,1,136.75,412.06Z" transform="translate(-74.9 -346.57)"/><path class="cls-14" d="M90.09,400.82a15.35,15.35,0,0,1,12.39-1.15l15.59,4.93-4.93,15.6a16.49,16.49,0,0,1-2,4.33,15.14,15.14,0,0,0,4.45-7.07l4.93-15.59-15.59-4.93a15.35,15.35,0,0,0-12.39,1.15h0a15.83,15.83,0,0,0-5.86,5.11,16.44,16.44,0,0,1,3.46-2.38Z" transform="translate(-74.9 -346.57)"/><path class="cls-15" d="M93.15,434.05A21.53,21.53,0,0,1,79.91,423h0a21.61,21.61,0,0,1-1.47-17.22A23,23,0,0,1,81.81,399,22.06,22.06,0,0,0,76,408.46a21.61,21.61,0,0,0,1.47,17.22h0a21.53,21.53,0,0,0,13.24,11.1,23.09,23.09,0,0,0,25.12-8,22.92,22.92,0,0,1-5.51,3.84A21.83,21.83,0,0,1,93.15,434.05Z" transform="translate(-74.9 -346.57)"/><path class="cls-16" d="M81.81,399a23,23,0,0,0-3.37,6.73A21.61,21.61,0,0,0,79.91,423h0a21.53,21.53,0,0,0,13.24,11.1,21.83,21.83,0,0,0,17.21-1.47,22.92,22.92,0,0,0,5.51-3.84,22.57,22.57,0,0,0,3.31-6.64L126,400.48l-21.62-6.84a21.7,21.7,0,0,0-17.26,1.59A22.87,22.87,0,0,0,81.81,399Zm23.07-2.06,15.59,4.93-4.93,15.59a15.14,15.14,0,0,1-4.45,7.07,17.24,17.24,0,0,1-3.61,2.42l0,0a15.55,15.55,0,0,1-12.4,1,16.19,16.19,0,0,1-10.59-20.38,16.67,16.67,0,0,1,2.13-4.43,15.83,15.83,0,0,1,5.86-5.11h0A15.35,15.35,0,0,1,104.88,396.94Z" transform="translate(-74.9 -346.57)"/><path class="cls-17" d="M115.46,408.42a7.18,7.18,0,0,0-1.89-.22,9.31,9.31,0,0,0-1.83.18,11.77,11.77,0,0,0-3.37,1.24l-.39.22-.4.24-.83.49-1.67.95q-1.68.94-3.39,1.83c-1.14.59-2.28,1.16-3.44,1.72-.58.28-1.16.56-1.74.82l-.44.2-.23.11-.24.1c-.32.13-.64.24-.95.35a16.05,16.05,0,0,1-3.93.8,11.12,11.12,0,0,1-2-.05,7.24,7.24,0,0,1-1.91-.48,11.88,11.88,0,0,0,1.9-.15,16.14,16.14,0,0,0,1.83-.41A23.24,23.24,0,0,0,94,415l.81-.42.19-.11.19-.11.42-.24c.55-.33,1.11-.64,1.67-.95,1.12-.63,2.25-1.24,3.38-1.83s2.29-1.16,3.44-1.72l1.75-.82.87-.4.46-.2.47-.19.48-.18.5-.15a8.1,8.1,0,0,1,1-.24,9.32,9.32,0,0,1,2-.17,8.33,8.33,0,0,1,2,.29A5.71,5.71,0,0,1,115.46,408.42Z" transform="translate(-74.9 -346.57)"/></svg>