<svg id="Calque_1" data-name="Calque 1" xmlns="http://www.w3.org/2000/svg" xmlns:xlink="http://www.w3.org/1999/xlink" viewBox="0 0 735.85 558"><defs><style>.cls-1{fill:url(#Dégradé_sans_nom_32);}</style><linearGradient id="Dégradé_sans_nom_32" x1="716.67" y1="787.46" x2="1283.33" y2="220.81" gradientUnits="userSpaceOnUse"><stop offset="0.03" stop-color="#c6ee0b"/><stop offset="0.5" stop-color="#00a65b"/><stop offset="0.82" stop-color="#258461"/><stop offset="1" stop-color="#3c6f65"/></linearGradient></defs><title>Picto Youtube</title><path class="cls-1" d="M1119.73,781.19c-10.92-.39-23.68.75-36.46.72-9.85,0-19.72-.18-29.55.25-19.53.86-39.07.7-58.61.79-14.11.06-28.24.16-42.34-.35-17.62-.63-35.26-.42-52.87-.91-12.48-.34-25-.4-37.43-.88-8.65-.33-17.31-.41-26-.86-6.74-.35-13.54-.18-20.21-.92-12.24-1.36-24.54-1.44-36.77-2.59-12-1.13-24-1.25-35.88-3.19-8.51-1.4-17.13-2.41-25.46-4.72-13.06-3.62-25.6-8.54-36.46-16.92-12.36-9.55-21-21.94-27-36.27-7.22-17.35-10.8-35.61-13.23-54.13-2-15.25-3.47-30.57-4.53-45.92q-.94-13.83-1.75-27.65c-.78-13.18-1.31-26.37-1.82-39.56-.36-9.39-.45-18.79-.89-28.17-.28-6-.54-12-.44-18,.2-12.19.46-24.38.89-36.56.46-13.19,1-26.38,1.78-39.56,1-16.82,2.07-33.65,3.58-50.43,1.37-15.17,2.95-30.33,5.82-45.32,3-15.63,7-30.94,14.39-45.14,7.26-13.95,17.28-25.34,31-33.38,10-5.85,20.67-9.56,31.81-12.37,13.44-3.39,27.14-4.27,40.84-5.7,11.34-1.18,22.71-2,34.07-2.94,8.91-.75,17.88-.77,26.81-1.31,11.27-.68,22.57-.59,33.84-1.36,7.32-.5,14.7-.16,22-.4,11.7-.39,23.4-.95,35.1-1.43.59,0,1.18,0,1.76,0,15.88-.1,31.78.2,47.64-.4,19-.7,37.92-.63,56.86-.38,21.6.28,43.19.51,64.79.92,7.32.14,14.7-.13,22,.55,11.86,1.1,23.74.62,35.59,1.19,8.06.39,16.15.28,24.19.83,13.16.89,26.35,1.12,39.5,2.16,6.86.54,13.81.57,20.62,1.4,15.1,1.85,30.43,1.94,45.32,5.26,11.3,2.51,22.52,5.53,32.88,10.92a82.71,82.71,0,0,1,36.11,36.12c7.18,13.82,11.25,28.63,14.2,43.8,3.31,17,5,34.22,6.46,51.46,1.13,12.85,2,25.71,2.68,38.59.7,12.31,1.25,24.61,1.79,36.92.41,9.54.3,19.09.91,28.6.76,11.91.58,23.81.33,35.69-.2,9.1-.49,18.2-.79,27.29q-.65,19.35-1.77,38.68c-.73,12.87-1.47,25.76-2.66,38.6-2,21.15-3.73,42.34-8.48,63.13-3.61,15.83-8.66,31.07-17.66,44.79a77.24,77.24,0,0,1-21.78,22c-14.57,9.75-30.84,14.51-47.92,17.49-14,2.44-28.17,3.33-42.33,4.37-9.06.67-18.16,1-27.19,1.84-10.93,1-21.9,1.27-32.83,2.17-4.09.33-8.22.23-12.33.34ZM927,622.76a26.93,26.93,0,0,0,6.54-3.38c9.36-5.79,18.67-11.66,28-17.49,6.35-4,12.71-7.9,19-11.89,10.8-6.8,21.56-13.66,32.37-20.44,7.71-4.83,15.51-9.5,23.22-14.34,13.41-8.42,26.76-17,40.18-25.36,10.82-6.78,21.72-13.42,32.56-20.16,2.82-1.76,5.55-3.66,8.24-5.44a3.46,3.46,0,0,0-2-2.47q-14.37-9-28.74-18c-10.85-6.74-21.75-13.37-32.57-20.15-16.52-10.37-33-20.83-49.5-31.23-8.93-5.63-17.89-11.21-26.85-16.82q-23.12-14.47-46.27-28.93C930,386,928.85,385,927,385Z" transform="translate(-632.07 -225)"/></svg>